<?xml version="1.0" encoding="iso-8859-1"?>
<!-- Generator: Adobe Illustrator 19.0.0, SVG Export Plug-In . SVG Version: 6.00 Build 0)  -->
<svg xmlns="http://www.w3.org/2000/svg" xmlns:xlink="http://www.w3.org/1999/xlink" version="1.1" id="Layer_1" x="0px" y="0px" viewBox="0 0 512 512" style="enable-background:new 0 0 512 512;" xml:space="preserve">
<path style="fill:#EFEFEF;" d="M450.091,155.746v318.625c0,15.668-12.707,28.376-28.376,28.376H90.284  c-15.668,0-28.376-12.708-28.376-28.376V37.629c0-15.668,12.708-28.376,28.376-28.376h213.313L450.091,155.746z"/>
<g>
	<path style="fill:#E0E0E3;" d="M450.091,436.199v38.171c0,15.668-12.707,28.376-28.376,28.376H90.284   c-15.668,0-28.376-12.708-28.376-28.376v-38.171c0,15.668,12.708,28.376,28.376,28.376h331.431   C437.384,464.575,450.091,451.868,450.091,436.199z"/>
	<path style="fill:#E0E0E3;" d="M450.091,155.746v24.674H331.973c-29.252,0-53.051-23.799-53.051-53.05V9.253h24.674   L450.091,155.746z"/>
</g>
<path style="fill:#D8D7DA;" d="M331.973,155.746h118.117L303.597,9.253V127.37C303.597,143.042,316.302,155.746,331.973,155.746z"/>
<path style="fill:#00A5FF;" d="M388.727,381.781c0,33.788-27.488,61.276-61.275,61.276c-33.788,0-61.276-27.488-61.276-61.276  s27.488-61.276,61.276-61.276C361.239,320.505,388.727,347.993,388.727,381.781z M303.189,381.781  c0,13.38,10.885,24.264,24.264,24.264c13.379,0,24.264-10.885,24.264-24.264c0-13.379-10.885-24.264-24.264-24.264  C314.073,357.517,303.189,368.402,303.189,381.781z"/>
<path style="fill:#FF318E;" d="M195.198,126.914l18.992-18.992c7.228-7.228,7.228-18.944,0-26.172  c-7.227-7.228-18.945-7.228-26.172,0l-18.992,18.992l-18.992-18.992c-7.227-7.228-18.945-7.228-26.172,0  c-7.228,7.228-7.228,18.944,0,26.172l18.992,18.992l-18.992,18.992c-7.228,7.228-7.228,18.944,0,26.172  c3.613,3.614,8.35,5.421,13.085,5.421c4.735,0,9.472-1.807,13.085-5.421l18.992-18.992l18.992,18.992  c3.613,3.614,8.35,5.421,13.085,5.421s9.472-1.807,13.085-5.421c7.228-7.228,7.228-18.944,0-26.172L195.198,126.914z"/>
<path d="M450.092,297.33c5.111,0,9.253-4.143,9.253-9.253V155.746c0-6.911-10.079-13.912-14.388-18.221  c-12.017-12.017-24.035-24.035-36.052-36.052c-27.842-27.842-55.686-55.686-83.528-83.528c-4.155-4.155-8.309-8.309-12.463-12.462  C310.248,2.817,307.756,0,303.597,0H90.284C69.536,0,52.656,16.88,52.656,37.629v436.742c0,20.749,16.88,37.629,37.629,37.629  h331.431c20.749,0,37.629-16.88,37.629-37.629V324.207c0-5.111-4.142-9.253-9.253-9.253c-5.111,0-9.253,4.143-9.253,9.253V474.37  c0,10.544-8.579,19.123-19.123,19.123H90.284c-10.544,0-19.123-8.579-19.123-19.123V37.629c0-10.544,8.579-19.123,19.123-19.123  h204.06v41.331c0,5.111,4.142,9.253,9.253,9.253s9.253-4.143,9.253-9.253V31.591l57.452,57.451l57.452,57.451h-95.78  c-10.544,0-19.123-8.579-19.123-19.123V94.837c0-5.111-4.142-9.253-9.253-9.253c-5.111,0-9.253,4.143-9.253,9.253v32.533  c0,20.749,16.88,37.629,37.629,37.629h108.865v123.077C440.838,293.187,444.98,297.33,450.092,297.33z"/>
<path d="M327.452,452.309c0.001,0,0,0,0.001,0c18.812,0,36.517-7.344,49.851-20.677c13.334-13.334,20.677-31.038,20.677-49.851  c0-38.889-31.638-70.529-70.529-70.53c-38.89,0-70.529,31.639-70.529,70.529S288.561,452.309,327.452,452.309z M327.452,329.758  c28.686,0.001,52.023,23.338,52.023,52.023c0,13.87-5.418,26.927-15.258,36.766c-9.839,9.839-22.895,15.257-36.765,15.257  c-28.686,0-52.023-23.338-52.023-52.023C275.429,353.095,298.767,329.758,327.452,329.758z"/>
<path d="M301.585,379.362c4.581,2.264,10.131,0.386,12.396-4.196c2.559-5.178,7.722-8.397,13.472-8.397  c8.277,0.001,15.011,6.734,15.011,15.011c0,4-1.564,7.767-4.405,10.606c-2.84,2.84-6.606,4.404-10.606,4.404  c-3.127,0-6.126-0.957-8.672-2.768c-4.165-2.962-9.941-1.988-12.903,2.174c-2.963,4.164-1.991,9.941,2.173,12.905  c5.697,4.053,12.405,6.196,19.402,6.196c0,0,0,0,0.001,0c8.942,0,17.356-3.489,23.69-9.824c6.336-6.335,9.825-14.75,9.825-23.692  c0-18.481-15.035-33.517-33.517-33.517c-12.842,0-24.362,7.167-30.063,18.704C295.125,371.549,297.004,377.098,301.585,379.362z"/>
<path d="M165.411,222.548c3.877,70.548,45.336,109.716,71.375,127.505c1.597,1.091,3.414,1.613,5.211,1.613  c2.954,0,5.857-1.412,7.649-4.033c2.883-4.22,1.8-9.978-2.42-12.861c-22.858-15.616-59.076-49.865-63.19-111.524l14.037,14.037  c1.808,1.807,4.175,2.71,6.543,2.71c2.368,0,4.737-0.904,6.543-2.71c3.613-3.613,3.613-9.472,0-13.085l-28.682-28.682  c-1.547-2.414-4.184-4.082-7.265-4.256c-0.187-0.01-0.371-0.002-0.556-0.001c-2.461-0.074-4.945,0.818-6.823,2.697L137.589,224.2  c-3.614,3.613-3.614,9.472-0.001,13.085c3.613,3.613,9.472,3.614,13.085,0L165.411,222.548z"/>
<path d="M109.192,158.992c0,7.415,2.888,14.385,8.13,19.627c5.242,5.243,12.213,8.131,19.628,8.131  c7.416,0,14.387-2.888,19.628-8.13l12.448-12.449l12.448,12.448c5.242,5.243,12.213,8.131,19.628,8.131s14.387-2.888,19.627-8.13  c5.243-5.243,8.131-12.215,8.131-19.628s-2.888-14.385-8.13-19.628l-12.449-12.449l12.448-12.448  c5.243-5.243,8.131-12.215,8.131-19.628c0-7.415-2.888-14.385-8.13-19.627c-8.685-8.687-22.26-10.617-33.019-4.695  c-2.284,1.26-4.383,2.839-6.238,4.694c-3.613,3.613-3.613,9.472,0,13.085c3.614,3.613,9.472,3.613,13.086,0  c0.624-0.624,1.327-1.154,2.084-1.572c3.583-1.972,8.106-1.325,11.003,1.572c1.747,1.748,2.709,4.071,2.709,6.542  c0,2.471-0.962,4.795-2.71,6.543l-18.992,18.992c-3.613,3.613-3.613,9.472,0,13.085l18.993,18.992  c1.747,1.748,2.709,4.071,2.709,6.542s-0.962,4.795-2.71,6.543c-1.747,1.747-4.071,2.709-6.542,2.709s-4.795-0.962-6.542-2.71  l-18.992-18.992c-3.614-3.613-9.472-3.613-13.086,0l-18.992,18.992c-1.747,1.747-4.071,2.709-6.542,2.709  c-2.471,0-4.795-0.962-6.543-2.71c-1.747-1.748-2.709-4.071-2.709-6.542s0.962-4.795,2.71-6.543l18.992-18.992  c3.613-3.613,3.613-9.472,0-13.085l-18.993-18.992c-1.747-1.748-2.709-4.071-2.709-6.542c0-2.471,0.962-4.795,2.71-6.543  c1.747-1.747,4.071-2.71,6.542-2.71s4.795,0.962,6.542,2.71l18.992,18.992c3.614,3.613,9.472,3.613,13.086,0  c3.613-3.613,3.613-9.472,0-13.085l-18.992-18.991c-5.242-5.244-12.213-8.132-19.628-8.132c-7.416,0-14.387,2.888-19.627,8.13  c-5.243,5.243-8.131,12.215-8.131,19.628c0,7.415,2.888,14.385,8.13,19.628l12.449,12.449l-12.448,12.448  C112.08,144.606,109.192,151.577,109.192,158.992z"/>
<path d="M386.198,222.037c5.111,0,9.253-4.143,9.253-9.253c0-5.11-4.142-9.253-9.253-9.253h-58.747  c-5.111,0-9.253,4.143-9.253,9.253c0,5.11,4.142,9.253,9.253,9.253H386.198z"/>
<path d="M269.669,241.607c0,5.111,4.142,9.253,9.253,9.253h107.276c5.111,0,9.253-4.143,9.253-9.253  c0-5.111-4.142-9.253-9.253-9.253H278.923C273.812,232.354,269.669,236.496,269.669,241.607z"/>
<path d="M136.397,359.887h-10.502c-5.111,0-9.253,4.143-9.253,9.253s4.142,9.253,9.253,9.253h10.502  c5.111,0,9.253-4.143,9.253-9.253S141.507,359.887,136.397,359.887z"/>
<path d="M136.397,385.681h-10.502c-5.111,0-9.253,4.143-9.253,9.253c0,5.11,4.142,9.253,9.253,9.253h10.502  c5.111,0,9.253-4.143,9.253-9.253C145.649,389.824,141.507,385.681,136.397,385.681z"/>
<path d="M136.397,411.476h-10.502c-5.111,0-9.253,4.143-9.253,9.253c0,5.11,4.142,9.253,9.253,9.253h10.502  c5.111,0,9.253-4.143,9.253-9.253C145.649,415.619,141.507,411.476,136.397,411.476z"/>
<path d="M278.923,280.709h107.275c5.111,0,9.253-4.143,9.253-9.253s-4.142-9.253-9.253-9.253H278.923  c-5.111,0-9.253,4.143-9.253,9.253S273.812,280.709,278.923,280.709z"/>
<g>
</g>
<g>
</g>
<g>
</g>
<g>
</g>
<g>
</g>
<g>
</g>
<g>
</g>
<g>
</g>
<g>
</g>
<g>
</g>
<g>
</g>
<g>
</g>
<g>
</g>
<g>
</g>
<g>
</g>
</svg>
